{
  "accessors": [
    {
      "bufferView": 0,
      "componentType": 5126,
      "count": 1241,
      "type": "VEC3",
      "max": [
        8.78766918182373,
        4.9610776901245117,
        4.8592720031738281
      ],
      "min": [
        -8.78766918182373,
        0.0,
        -4.8592720031738281
      ]
    },
    {
      "bufferView": 1,
      "componentType": 5126,
      "count": 1241,
      "type": "VEC3",
      "max": [
        0.96638429164886475,
        0.9997667670249939,
        0.99981623888015747
      ],
      "min": [
        -0.86980181932449341,
        -0.99974280595779419,
        -0.99486511945724487
      ]
    },
    {
      "bufferView": 2,
      "componentType": 5126,
      "count": 1241,
      "type": "VEC4",
      "max": [
        0.99999880790710449,
        0.99999994039535522,
        0.99999380111694336,
        1.0
      ],
      "min": [
        -0.36903399229049683,
        -0.39901775121688843,
        -0.38885700702667236,
        -1.0
      ]
    },
    {
      "bufferView": 3,
      "componentType": 5126,
      "count": 1241,
      "type": "VEC2",
      "max": [
        0.48512941598892212,
        0.0092997588217258453
      ],
      "min": [
        0.48512941598892212,
        0.0092997588217258453
      ]
    },
    {
      "bufferView": 4,
      "componentType": 5125,
      "count": 1470,
      "type": "SCALAR",
      "max": [
        1240.0
      ],
      "min": [
        0.0
      ]
    },
    {
      "bufferView": 5,
      "componentType": 5126,
      "count": 689,
      "type": "VEC3",
      "max": [
        9.114781379699707,
        4.2631072998046875,
        3.2133197784423828
      ],
      "min": [
        -9.1147785186767578,
        0.0,
        -3.2133197784423828
      ]
    },
    {
      "bufferView": 6,
      "componentType": 5126,
      "count": 689,
      "type": "VEC3",
      "max": [
        0.97966217994689941,
        0.99980229139328,
        0.99214595556259155
      ],
      "min": [
        -0.89445608854293823,
        -0.99790239334106445,
        -0.99214798212051392
      ]
    },
    {
      "bufferView": 7,
      "componentType": 5126,
      "count": 689,
      "type": "VEC4",
      "max": [
        0.99999982118606567,
        0.99992680549621582,
        0.99999982118606567,
        1.0
      ],
      "min": [
        -0.39601239562034607,
        -0.39724019169807434,
        -0.40242964029312134,
        -1.0
      ]
    },
    {
      "bufferView": 8,
      "componentType": 5126,
      "count": 689,
      "type": "VEC2",
      "max": [
        0.48512941598892212,
        0.0092997588217258453
      ],
      "min": [
        0.48512941598892212,
        0.0092997588217258453
      ]
    },
    {
      "bufferView": 9,
      "componentType": 5125,
      "count": 756,
      "type": "SCALAR",
      "max": [
        688.0
      ],
      "min": [
        0.0
      ]
    },
    {
      "bufferView": 10,
      "componentType": 5126,
      "count": 770,
      "type": "VEC3",
      "max": [
        8.3480930328369141,
        4.1282334327697754,
        2.0104961395263672
      ],
      "min": [
        -8.3480911254882813,
        0.0,
        -2.010498046875
      ]
    },
    {
      "bufferView": 11,
      "componentType": 5126,
      "count": 770,
      "type": "VEC3",
      "max": [
        0.89899665117263794,
        0.99860888719558716,
        0.99573057889938354
      ],
      "min": [
        -0.92894011735916138,
        -0.99808204174041748,
        -0.997338593006134
      ]
    },
    {
      "bufferView": 12,
      "componentType": 5126,
      "count": 770,
      "type": "VEC4",
      "max": [
        0.99999570846557617,
        0.99999493360519409,
        0.99999725818634033,
        1.0
      ],
      "min": [
        -0.40922185778617859,
        -0.39299803972244263,
        -0.40727278590202332,
        -1.0
      ]
    },
    {
      "bufferView": 13,
      "componentType": 5126,
      "count": 770,
      "type": "VEC2",
      "max": [
        0.48512941598892212,
        0.0092997588217258453
      ],
      "min": [
        0.48512941598892212,
        0.0092997588217258453
      ]
    },
    {
      "bufferView": 14,
      "componentType": 5125,
      "count": 840,
      "type": "SCALAR",
      "max": [
        769.0
      ],
      "min": [
        0.0
      ]
    }
  ],
  "asset": {
    "generator": "UnityGLTF (2019.3.11f1)",
    "version": "2.0"
  },
  "buffers": [
    {
      "uri": "Unity2Skfb.bin",
      "byteLength": 141864
    }
  ],
  "bufferViews": [
    {
      "buffer": 0,
      "byteLength": 14892
    },
    {
      "buffer": 0,
      "byteOffset": 14892,
      "byteLength": 14892
    },
    {
      "buffer": 0,
      "byteOffset": 29784,
      "byteLength": 19856
    },
    {
      "buffer": 0,
      "byteOffset": 49640,
      "byteLength": 9928
    },
    {
      "buffer": 0,
      "byteOffset": 59568,
      "byteLength": 5880
    },
    {
      "buffer": 0,
      "byteOffset": 65448,
      "byteLength": 8268
    },
    {
      "buffer": 0,
      "byteOffset": 73716,
      "byteLength": 8268
    },
    {
      "buffer": 0,
      "byteOffset": 81984,
      "byteLength": 11024
    },
    {
      "buffer": 0,
      "byteOffset": 93008,
      "byteLength": 5512
    },
    {
      "buffer": 0,
      "byteOffset": 98520,
      "byteLength": 3024
    },
    {
      "buffer": 0,
      "byteOffset": 101544,
      "byteLength": 9240
    },
    {
      "buffer": 0,
      "byteOffset": 110784,
      "byteLength": 9240
    },
    {
      "buffer": 0,
      "byteOffset": 120024,
      "byteLength": 12320
    },
    {
      "buffer": 0,
      "byteOffset": 132344,
      "byteLength": 6160
    },
    {
      "buffer": 0,
      "byteOffset": 138504,
      "byteLength": 3360
    }
  ],
  "materials": [
    {
      "pbrMetallicRoughness": {
        "metallicFactor": 0.0
      },
      "emissiveFactor": [
        1.0,
        1.0,
        1.0
      ],
      "name": "Cloud_Mat"
    }
  ],
  "meshes": [
    {
      "primitives": [
        {
          "attributes": {
            "POSITION": 0,
            "NORMAL": 1,
            "TANGENT": 2,
            "TEXCOORD_0": 3
          },
          "indices": 4,
          "material": 0
        }
      ],
      "name": "SM_Env_Cloud_13"
    },
    {
      "primitives": [
        {
          "attributes": {
            "POSITION": 5,
            "NORMAL": 6,
            "TANGENT": 7,
            "TEXCOORD_0": 8
          },
          "indices": 9,
          "material": 0
        }
      ],
      "name": "SM_Env_Cloud_10"
    },
    {
      "primitives": [
        {
          "attributes": {
            "POSITION": 10,
            "NORMAL": 11,
            "TANGENT": 12,
            "TEXCOORD_0": 13
          },
          "indices": 14,
          "material": 0
        }
      ],
      "name": "SM_Env_Cloud_12"
    }
  ],
  "nodes": [
    {
      "mesh": 0,
      "rotation": [
        0.0,
        -0.9460374,
        0.0,
        0.324057519
      ],
      "scale": [
        3.431431,
        3.43143129,
        3.43143249
      ],
      "translation": [
        -92.0,
        84.0,
        -148.0
      ],
      "name": "SM_Env_Cloud_13"
    },
    {
      "mesh": 0,
      "rotation": [
        0.0,
        0.2966763,
        0.0,
        -0.9549781
      ],
      "scale": [
        3.43143034,
        3.43143129,
        3.43143129
      ],
      "translation": [
        -118.0,
        87.6,
        152.6
      ],
      "name": "SM_Env_Cloud_04"
    },
    {
      "mesh": 0,
      "rotation": [
        0.0,
        -0.9421042,
        0.0,
        -0.335320234
      ],
      "scale": [
        3.43143082,
        3.43143129,
        3.43143177
      ],
      "translation": [
        144.7,
        83.5,
        -183.0
      ],
      "name": "SM_Env_Cloud_08"
    },
    {
      "mesh": 1,
      "rotation": [
        0.0216913652,
        -0.9954114,
        0.0115689626,
        0.0924764946
      ],
      "scale": [
        2.216607,
        2.21660519,
        2.216607
      ],
      "translation": [
        23.8141441,
        67.40571,
        -202.110138
      ],
      "name": "SM_Env_Cloud_10"
    },
    {
      "mesh": 2,
      "rotation": [
        0.0,
        0.0,
        0.0,
        -1.0
      ],
      "scale": [
        3.51949453,
        3.51949525,
        3.51949525
      ],
      "translation": [
        -56.0,
        75.0,
        176.0
      ],
      "name": "SM_Env_Cloud_12"
    },
    {
      "mesh": 1,
      "rotation": [
        0.0,
        0.5443284,
        0.0,
        -0.8388723
      ],
      "scale": [
        2.21660686,
        2.21660566,
        2.216606
      ],
      "translation": [
        -168.9,
        78.6,
        99.4
      ],
      "name": "SM_Env_Cloud_11"
    },
    {
      "mesh": 0,
      "rotation": [
        0.0,
        -0.4809286,
        0.0,
        -0.8767598
      ],
      "scale": [
        3.43143082,
        3.43143129,
        3.43143153
      ],
      "translation": [
        158.3,
        83.5,
        113.0
      ],
      "name": "SM_Env_Cloud_05"
    },
    {
      "mesh": 1,
      "rotation": [
        0.0,
        -0.8160095,
        0.0,
        -0.5780385
      ],
      "scale": [
        2.216607,
        2.21660566,
        2.21660614
      ],
      "translation": [
        191.0,
        74.5,
        -125.8
      ],
      "name": "SM_Env_Cloud_07"
    },
    {
      "mesh": 2,
      "rotation": [
        0.0,
        -0.9933267,
        0.0,
        -0.115334667
      ],
      "scale": [
        3.519495,
        3.51949525,
        3.51949549
      ],
      "translation": [
        99.7,
        80.5,
        -208.6
      ],
      "name": "SM_Env_Cloud_09"
    },
    {
      "mesh": 1,
      "rotation": [
        0.0,
        -0.225382611,
        0.0,
        -0.974270344
      ],
      "scale": [
        2.21660686,
        2.21660566,
        2.21660566
      ],
      "translation": [
        106.8,
        74.5,
        165.7
      ],
      "name": "SM_Env_Cloud_06"
    }
  ],
  "scene": 0,
  "scenes": [
    {
      "nodes": [
        0,
        1,
        2,
        3,
        4,
        5,
        6,
        7,
        8,
        9
      ],
      "name": "Unity2Skfb"
    }
  ]
}